<svg width="17" height="16" viewBox="0 0 17 16" fill="none" xmlns="http://www.w3.org/2000/svg">
<path d="M8.03967 0.059082C3.53967 0.059082 0.0396729 3.55908 0.0396729 8.05908C0.0396729 13.3091 4.78967 15.5591 5.53967 15.5591C6.03967 15.5591 6.03967 15.3091 6.03967 15.0591V13.8091C4.28967 14.3091 3.53967 13.3091 3.28967 12.5591C3.28967 12.5591 3.28967 12.3091 2.78967 11.8091C2.53967 11.5591 1.53967 11.0591 2.53967 11.0591C3.28967 11.0591 3.78967 12.0591 3.78967 12.0591C4.53967 13.0591 5.53967 12.8091 6.03967 12.5591C6.03967 12.0591 6.53967 11.5591 6.53967 11.5591C4.53967 11.3091 3.03967 10.5591 3.03967 7.80908C3.03967 6.80908 3.28967 6.05908 3.78967 5.55908C3.78967 5.55908 3.28967 4.55908 3.78967 3.30908C3.78967 3.30908 5.03967 3.30908 6.03967 4.30908C6.78967 3.80908 9.28967 3.80908 10.0397 4.30908C11.0397 3.30908 12.2897 3.30908 12.2897 3.30908C12.7897 5.05908 12.2897 5.55908 12.2897 5.55908C12.7897 6.05908 13.0397 6.80908 13.0397 7.80908C13.0397 10.5591 11.2897 11.3091 9.53967 11.5591C9.78967 11.8091 10.0397 12.3091 10.0397 13.0591V15.0591C10.0397 15.3091 10.0397 15.5591 10.5397 15.5591C11.2897 15.5591 16.0397 13.3091 16.0397 8.05908C16.0397 3.55908 12.5397 0.059082 8.03967 0.059082Z" fill="#6D859E"/>
</svg>
