<svg width="222" height="46" viewBox="0 0 222 46" fill="none" xmlns="http://www.w3.org/2000/svg">
<circle r="23" transform="matrix(-1 0 0 1 23 23)" fill="#5E81F4"/>
<path fill-rule="evenodd" clip-rule="evenodd" d="M17.6917 15.7333L12.2646 25.1333C11.4948 26.4667 12.4571 28.1333 13.9966 28.1333H19.2577L23.7863 20.2895L21.1558 15.7333C20.386 14.4 18.4615 14.4 17.6917 15.7333ZM24.3637 19.2895L24.4923 19.0667C25.647 17.0667 28.5338 17.0667 29.6885 19.0667L35.1156 28.4667C36.2703 30.4667 34.8269 32.9667 32.5175 32.9667H21.6633C19.6052 32.9667 18.2349 30.9811 18.7784 29.1333H13.9966C11.6872 29.1333 10.2439 26.6333 11.3986 24.6333L16.8257 15.2333C17.9804 13.2333 20.8671 13.2333 22.0218 15.2333L24.3637 19.2895ZM24.941 20.2895L25.3584 19.5667C26.1282 18.2333 28.0527 18.2333 28.8225 19.5667L34.2495 28.9667C35.0193 30.3 34.0571 31.9667 32.5175 31.9667H21.6633C20.1873 31.9667 19.2419 30.4348 19.8447 29.1333H24.8508C27.1602 29.1333 28.6036 26.6333 27.4489 24.6333L24.941 20.2895ZM20.4124 28.1333L24.3637 21.2895L26.5829 25.1333C27.3527 26.4667 26.3904 28.1333 24.8508 28.1333H20.4124Z" fill="#5E81F4"/>
<path d="M12.2646 25.1333L11.8316 24.8833L12.2646 25.1333ZM17.6917 15.7333L18.1247 15.9833V15.9833L17.6917 15.7333ZM19.2577 28.1333L19.6907 28.3833L19.5464 28.6333H19.2577V28.1333ZM23.7863 20.2895L24.2193 20.0395L24.3637 20.2895L24.2193 20.5395L23.7863 20.2895ZM21.1558 15.7333L21.5888 15.4833V15.4833L21.1558 15.7333ZM24.3637 19.2895L24.7967 19.5395L24.3637 20.2895L23.9306 19.5395L24.3637 19.2895ZM24.4923 19.0667L24.9253 19.3167V19.3167L24.4923 19.0667ZM29.6885 19.0667L29.2555 19.3167L29.6885 19.0667ZM35.1156 28.4667L34.6826 28.7167L35.1156 28.4667ZM18.7784 29.1333V28.6333H19.4466L19.2581 29.2744L18.7784 29.1333ZM11.3986 24.6333L11.8316 24.8833L11.3986 24.6333ZM16.8257 15.2333L17.2587 15.4833V15.4833L16.8257 15.2333ZM22.0218 15.2333L21.5888 15.4833L22.0218 15.2333ZM24.941 20.2895L24.508 20.5395L24.3637 20.2895L24.508 20.0395L24.941 20.2895ZM25.3584 19.5667L24.9253 19.3167L24.9253 19.3167L25.3584 19.5667ZM28.8225 19.5667L29.2555 19.3167L28.8225 19.5667ZM34.2495 28.9667L33.8165 29.2167H33.8165L34.2495 28.9667ZM19.8447 29.1333L19.391 28.9232L19.5253 28.6333H19.8447V29.1333ZM27.4489 24.6333L27.8819 24.3833H27.8819L27.4489 24.6333ZM20.4124 28.1333V28.6333H19.5464L19.9794 27.8833L20.4124 28.1333ZM24.3637 21.2895L23.9306 21.0395L24.3637 20.2895L24.7967 21.0395L24.3637 21.2895ZM26.5829 25.1333L27.0159 24.8833L26.5829 25.1333ZM11.8316 24.8833L17.2587 15.4833L18.1247 15.9833L12.6976 25.3833L11.8316 24.8833ZM13.9966 28.6333C12.0721 28.6333 10.8693 26.55 11.8316 24.8833L12.6976 25.3833C12.1203 26.3833 12.842 27.6333 13.9966 27.6333V28.6333ZM19.2577 28.6333H13.9966V27.6333H19.2577V28.6333ZM18.8247 27.8833L23.3533 20.0395L24.2193 20.5395L19.6907 28.3833L18.8247 27.8833ZM21.5888 15.4833L24.2193 20.0395L23.3533 20.5395L20.7228 15.9833L21.5888 15.4833ZM17.2587 15.4833C18.2209 13.8167 20.6266 13.8167 21.5888 15.4833L20.7228 15.9833C20.1454 14.9833 18.702 14.9833 18.1247 15.9833L17.2587 15.4833ZM23.9306 19.0395L24.0593 18.8167L24.9253 19.3167L24.7967 19.5395L23.9306 19.0395ZM24.0593 18.8167C25.4065 16.4833 28.7743 16.4833 30.1215 18.8167L29.2555 19.3167C28.2932 17.65 25.8876 17.65 24.9253 19.3167L24.0593 18.8167ZM30.1215 18.8167L35.5486 28.2167L34.6826 28.7167L29.2555 19.3167L30.1215 18.8167ZM35.5486 28.2167C36.8957 30.55 35.2118 33.4667 32.5175 33.4667V32.4667C34.442 32.4667 35.6448 30.3833 34.6826 28.7167L35.5486 28.2167ZM32.5175 33.4667H21.6633V32.4667H32.5175V33.4667ZM21.6633 33.4667C19.2592 33.4667 17.6644 31.1485 18.2987 28.9922L19.2581 29.2744C18.8053 30.8136 19.9511 32.4667 21.6633 32.4667V33.4667ZM18.7784 29.6333H13.9966V28.6333H18.7784V29.6333ZM13.9966 29.6333C11.3023 29.6333 9.61841 26.7167 10.9656 24.3833L11.8316 24.8833C10.8693 26.55 12.0721 28.6333 13.9966 28.6333V29.6333ZM10.9656 24.3833L16.3927 14.9833L17.2587 15.4833L11.8316 24.8833L10.9656 24.3833ZM16.3927 14.9833C17.7398 12.65 21.1077 12.65 22.4548 14.9833L21.5888 15.4833C20.6266 13.8167 18.2209 13.8167 17.2587 15.4833L16.3927 14.9833ZM22.4548 14.9833L24.7967 19.0395L23.9306 19.5395L21.5888 15.4833L22.4548 14.9833ZM24.508 20.0395L24.9253 19.3167L25.7914 19.8167L25.374 20.5395L24.508 20.0395ZM24.9253 19.3167C25.8876 17.65 28.2932 17.65 29.2555 19.3167L28.3894 19.8167C27.8121 18.8167 26.3687 18.8167 25.7914 19.8167L24.9253 19.3167ZM29.2555 19.3167L34.6826 28.7167L33.8165 29.2167L28.3894 19.8167L29.2555 19.3167ZM34.6826 28.7167C35.6448 30.3833 34.442 32.4667 32.5175 32.4667V31.4667C33.6722 31.4667 34.3939 30.2167 33.8165 29.2167L34.6826 28.7167ZM32.5175 32.4667H21.6633V31.4667H32.5175V32.4667ZM21.6633 32.4667C19.8171 32.4667 18.6368 30.5514 19.391 28.9232L20.2984 29.3435C19.847 30.3181 20.5575 31.4667 21.6633 31.4667V32.4667ZM24.8508 29.6333H19.8447V28.6333H24.8508V29.6333ZM27.8819 24.3833C29.2291 26.7167 27.5451 29.6333 24.8508 29.6333V28.6333C26.7753 28.6333 27.9781 26.55 27.0159 24.8833L27.8819 24.3833ZM25.374 20.0395L27.8819 24.3833L27.0159 24.8833L24.508 20.5395L25.374 20.0395ZM19.9794 27.8833L23.9306 21.0395L24.7967 21.5395L20.8454 28.3833L19.9794 27.8833ZM24.7967 21.0395L27.0159 24.8833L26.1499 25.3833L23.9306 21.5395L24.7967 21.0395ZM27.0159 24.8833C27.9781 26.55 26.7753 28.6333 24.8508 28.6333V27.6333C26.0055 27.6333 26.7272 26.3833 26.1499 25.3833L27.0159 24.8833ZM24.8508 28.6333H20.4124V27.6333H24.8508V28.6333Z" fill="white"/>
<path d="M74.8477 13.0156V31.5H70.709V16.2275H63.6758V31.5H59.5498V13.0156H74.8477ZM84.9785 28.2246V22.334C84.9785 21.9193 84.915 21.5638 84.7881 21.2676C84.6611 20.9714 84.4622 20.7386 84.1914 20.5693C83.9206 20.4001 83.5693 20.3154 83.1377 20.3154C82.7738 20.3154 82.4564 20.3789 82.1855 20.5059C81.9232 20.6328 81.7201 20.8148 81.5762 21.0518C81.4408 21.2887 81.373 21.5807 81.373 21.9277H77.4121C77.4121 21.3099 77.5518 20.7344 77.8311 20.2012C78.1104 19.668 78.5081 19.1982 79.0244 18.792C79.5492 18.3857 80.1755 18.0726 80.9033 17.8525C81.6312 17.624 82.4479 17.5098 83.3535 17.5098C84.4284 17.5098 85.3848 17.6917 86.2227 18.0557C87.069 18.4111 87.7376 18.9486 88.2285 19.668C88.7194 20.3789 88.9648 21.276 88.9648 22.3594V28.1104C88.9648 28.9398 89.0114 29.5915 89.1045 30.0654C89.2061 30.5309 89.3499 30.9372 89.5361 31.2842V31.5H85.5371C85.3509 31.1022 85.2113 30.6113 85.1182 30.0273C85.0251 29.4349 84.9785 28.834 84.9785 28.2246ZM85.4736 23.1211L85.499 25.3047H83.5312C83.0911 25.3047 82.7103 25.3597 82.3887 25.4697C82.0755 25.5798 81.8216 25.7321 81.627 25.9268C81.4323 26.113 81.2884 26.333 81.1953 26.5869C81.1107 26.8324 81.0684 27.1032 81.0684 27.3994C81.0684 27.6787 81.1361 27.9326 81.2715 28.1611C81.4069 28.3812 81.5931 28.5547 81.8301 28.6816C82.0671 28.8086 82.3421 28.8721 82.6553 28.8721C83.1715 28.8721 83.6117 28.7705 83.9756 28.5674C84.348 28.3643 84.6357 28.1188 84.8389 27.8311C85.042 27.5348 85.1436 27.2598 85.1436 27.0059L86.0957 28.6562C85.9434 28.9948 85.7572 29.346 85.5371 29.71C85.3171 30.0654 85.0378 30.3997 84.6992 30.7129C84.3607 31.0176 83.9502 31.2673 83.4678 31.4619C82.9938 31.6566 82.4225 31.7539 81.7539 31.7539C80.8906 31.7539 80.1077 31.5804 79.4053 31.2334C78.7028 30.8779 78.14 30.3913 77.7168 29.7734C77.3021 29.1556 77.0947 28.4447 77.0947 27.6406C77.0947 26.9212 77.2259 26.2822 77.4883 25.7236C77.7507 25.165 78.1442 24.6911 78.6689 24.3018C79.2021 23.9124 79.8708 23.6204 80.6748 23.4258C81.4788 23.2227 82.4183 23.1211 83.4932 23.1211H85.4736ZM95.541 20.4043V36.7812H91.5801V17.7637H95.2744L95.541 20.4043ZM104.11 24.4795V24.7461C104.11 25.7448 103.996 26.6715 103.768 27.5264C103.539 28.3727 103.196 29.1133 102.739 29.748C102.291 30.3828 101.736 30.8779 101.076 31.2334C100.416 31.5804 99.6501 31.7539 98.7783 31.7539C97.9489 31.7539 97.2295 31.5804 96.6201 31.2334C96.0192 30.8779 95.5114 30.387 95.0967 29.7607C94.6904 29.126 94.3604 28.4023 94.1064 27.5898C93.861 26.7689 93.6706 25.8929 93.5352 24.9619V24.4414C93.6706 23.4512 93.8652 22.5329 94.1191 21.6865C94.373 20.8402 94.7031 20.1081 95.1094 19.4902C95.5156 18.8639 96.0192 18.3773 96.6201 18.0303C97.221 17.6833 97.9362 17.5098 98.7656 17.5098C99.6289 17.5098 100.395 17.6748 101.063 18.0049C101.732 18.335 102.291 18.8089 102.739 19.4268C103.196 20.0361 103.539 20.7682 103.768 21.623C103.996 22.4779 104.11 23.43 104.11 24.4795ZM100.137 24.7461V24.4795C100.137 23.9209 100.094 23.4089 100.01 22.9434C99.9251 22.4694 99.7897 22.0589 99.6035 21.7119C99.4173 21.3564 99.1719 21.0814 98.8672 20.8867C98.5625 20.6921 98.1901 20.5947 97.75 20.5947C97.276 20.5947 96.874 20.6709 96.5439 20.8232C96.2139 20.9756 95.9473 21.1999 95.7441 21.4961C95.541 21.7839 95.3929 22.1393 95.2998 22.5625C95.2152 22.9857 95.1686 23.4681 95.1602 24.0098V25.4062C95.1686 26.041 95.2575 26.6081 95.4268 27.1074C95.6045 27.5983 95.8796 27.9834 96.252 28.2627C96.6328 28.5335 97.1406 28.6689 97.7754 28.6689C98.224 28.6689 98.5964 28.5716 98.8926 28.377C99.1973 28.1738 99.4385 27.8903 99.6162 27.5264C99.8024 27.1624 99.9336 26.7435 100.01 26.2695C100.094 25.7956 100.137 25.2878 100.137 24.7461ZM110.445 17.7637V31.5H106.472V17.7637H110.445ZM119.357 17.7637L113.581 26.5234H109.836L109.379 22.8418H111.74L114.305 17.7637H119.357ZM114.432 31.5L111.448 25.7998L115.028 24.0225L119.776 31.5H114.432ZM119.764 24.7715V24.5049C119.764 23.4977 119.908 22.571 120.195 21.7246C120.483 20.8698 120.906 20.1292 121.465 19.5029C122.023 18.8766 122.709 18.39 123.521 18.043C124.334 17.6875 125.265 17.5098 126.314 17.5098C127.381 17.5098 128.32 17.6875 129.133 18.043C129.954 18.39 130.644 18.8766 131.202 19.5029C131.761 20.1292 132.184 20.8698 132.472 21.7246C132.759 22.571 132.903 23.4977 132.903 24.5049V24.7715C132.903 25.7702 132.759 26.6969 132.472 27.5518C132.184 28.3981 131.761 29.1387 131.202 29.7734C130.644 30.3997 129.958 30.8864 129.146 31.2334C128.333 31.5804 127.398 31.7539 126.34 31.7539C125.29 31.7539 124.355 31.5804 123.534 31.2334C122.713 30.8864 122.023 30.3997 121.465 29.7734C120.906 29.1387 120.483 28.3981 120.195 27.5518C119.908 26.6969 119.764 25.7702 119.764 24.7715ZM123.737 24.5049V24.7715C123.737 25.3132 123.78 25.821 123.864 26.2949C123.957 26.7689 124.105 27.1836 124.309 27.5391C124.512 27.8945 124.778 28.1738 125.108 28.377C125.447 28.5716 125.857 28.6689 126.34 28.6689C126.822 28.6689 127.229 28.5716 127.559 28.377C127.889 28.1738 128.155 27.8945 128.358 27.5391C128.562 27.1836 128.705 26.7689 128.79 26.2949C128.883 25.821 128.93 25.3132 128.93 24.7715V24.5049C128.93 23.9717 128.883 23.4723 128.79 23.0068C128.705 22.5329 128.562 22.1139 128.358 21.75C128.155 21.3861 127.884 21.1025 127.546 20.8994C127.216 20.6963 126.805 20.5947 126.314 20.5947C125.84 20.5947 125.438 20.6963 125.108 20.8994C124.778 21.1025 124.512 21.3861 124.309 21.75C124.105 22.1139 123.957 22.5329 123.864 23.0068C123.78 23.4723 123.737 23.9717 123.737 24.5049ZM141.942 25.8252H137.677L137.651 23.3115H141.181C141.587 23.3115 141.917 23.2692 142.171 23.1846C142.425 23.0915 142.607 22.9561 142.717 22.7783C142.835 22.6006 142.895 22.389 142.895 22.1436C142.895 21.8981 142.856 21.695 142.78 21.5342C142.704 21.3649 142.586 21.2295 142.425 21.1279C142.272 21.0179 142.082 20.9417 141.854 20.8994C141.625 20.8486 141.358 20.8232 141.054 20.8232H139.213V31.5H135.239V17.7637H141.054C141.951 17.7637 142.755 17.8441 143.466 18.0049C144.185 18.1572 144.795 18.3942 145.294 18.7158C145.802 19.029 146.191 19.4268 146.462 19.9092C146.733 20.3831 146.868 20.946 146.868 21.5977C146.868 22.0208 146.767 22.4186 146.563 22.791C146.369 23.1634 146.077 23.4935 145.688 23.7812C145.307 24.069 144.837 24.306 144.278 24.4922C143.72 24.6699 143.076 24.7799 142.349 24.8223L141.942 25.8252ZM141.942 31.5H136.763L138.045 28.4404H141.942C142.34 28.4404 142.666 28.3939 142.92 28.3008C143.174 28.1992 143.36 28.0553 143.479 27.8691C143.605 27.6745 143.669 27.4375 143.669 27.1582C143.669 26.8958 143.614 26.6673 143.504 26.4727C143.402 26.2695 143.225 26.113 142.971 26.0029C142.717 25.8844 142.374 25.8252 141.942 25.8252H138.553L138.578 23.3115H142.323L143.237 24.3271C144.253 24.3864 145.082 24.5726 145.726 24.8857C146.377 25.1904 146.855 25.5755 147.16 26.041C147.473 26.5065 147.63 27.0186 147.63 27.5771C147.63 28.2288 147.507 28.8001 147.262 29.291C147.016 29.7819 146.648 30.1924 146.157 30.5225C145.675 30.8441 145.078 31.0895 144.367 31.2588C143.665 31.4196 142.856 31.5 141.942 31.5ZM153.863 17.7637V31.5H149.89V17.7637H153.863ZM162.775 17.7637L156.999 26.5234H153.254L152.797 22.8418H155.158L157.723 17.7637H162.775ZM157.85 31.5L154.866 25.7998L158.446 24.0225L163.194 31.5H157.85ZM171.688 28.2246V22.334C171.688 21.9193 171.624 21.5638 171.497 21.2676C171.37 20.9714 171.171 20.7386 170.9 20.5693C170.63 20.4001 170.278 20.3154 169.847 20.3154C169.483 20.3154 169.165 20.3789 168.895 20.5059C168.632 20.6328 168.429 20.8148 168.285 21.0518C168.15 21.2887 168.082 21.5807 168.082 21.9277H164.121C164.121 21.3099 164.261 20.7344 164.54 20.2012C164.819 19.668 165.217 19.1982 165.733 18.792C166.258 18.3857 166.884 18.0726 167.612 17.8525C168.34 17.624 169.157 17.5098 170.062 17.5098C171.137 17.5098 172.094 17.6917 172.932 18.0557C173.778 18.4111 174.447 18.9486 174.938 19.668C175.428 20.3789 175.674 21.276 175.674 22.3594V28.1104C175.674 28.9398 175.72 29.5915 175.813 30.0654C175.915 30.5309 176.059 30.9372 176.245 31.2842V31.5H172.246C172.06 31.1022 171.92 30.6113 171.827 30.0273C171.734 29.4349 171.688 28.834 171.688 28.2246ZM172.183 23.1211L172.208 25.3047H170.24C169.8 25.3047 169.419 25.3597 169.098 25.4697C168.785 25.5798 168.531 25.7321 168.336 25.9268C168.141 26.113 167.997 26.333 167.904 26.5869C167.82 26.8324 167.777 27.1032 167.777 27.3994C167.777 27.6787 167.845 27.9326 167.98 28.1611C168.116 28.3812 168.302 28.5547 168.539 28.6816C168.776 28.8086 169.051 28.8721 169.364 28.8721C169.881 28.8721 170.321 28.7705 170.685 28.5674C171.057 28.3643 171.345 28.1188 171.548 27.8311C171.751 27.5348 171.853 27.2598 171.853 27.0059L172.805 28.6562C172.652 28.9948 172.466 29.346 172.246 29.71C172.026 30.0654 171.747 30.3997 171.408 30.7129C171.07 31.0176 170.659 31.2673 170.177 31.4619C169.703 31.6566 169.132 31.7539 168.463 31.7539C167.6 31.7539 166.817 31.5804 166.114 31.2334C165.412 30.8779 164.849 30.3913 164.426 29.7734C164.011 29.1556 163.804 28.4447 163.804 27.6406C163.804 26.9212 163.935 26.2822 164.197 25.7236C164.46 25.165 164.853 24.6911 165.378 24.3018C165.911 23.9124 166.58 23.6204 167.384 23.4258C168.188 23.2227 169.127 23.1211 170.202 23.1211H172.183Z" fill="#3E4958"/>
<path d="M190.87 13.0156V15.1484L183.837 31.5H179.647L186.681 16.1006H177.667V13.0156H190.87ZM205.876 13.0156V15.1484L198.843 31.5H194.653L201.687 16.1006H192.673V13.0156H205.876ZM220.882 13.0156V15.1484L213.849 31.5H209.659L216.692 16.1006H207.679V13.0156H220.882Z" fill="#5E81F4"/>
</svg>
