<svg width="17" height="20" viewBox="0 0 17 20" fill="none" xmlns="http://www.w3.org/2000/svg">
<path fill-rule="evenodd" clip-rule="evenodd" d="M8.24951 1.5C4.52751 1.5 1.49951 4.557 1.49951 8.313C1.49951 13.092 7.12351 17.748 8.24951 17.996C9.37551 17.747 14.9995 13.091 14.9995 8.313C14.9995 4.557 11.9715 1.5 8.24951 1.5ZM11.5005 8.251C11.5005 6.458 10.0425 5 8.25051 5C6.45851 5 5.00051 6.458 5.00051 8.251C5.00051 10.043 6.45851 11.5 8.25051 11.5C10.0425 11.5 11.5005 10.043 11.5005 8.251Z" fill="#5E81F4"/>
<path d="M8.25051 6.5C7.28551 6.5 6.50051 7.285 6.50051 8.251C6.50051 9.216 7.28551 10 8.25051 10C9.21551 10 10.0005 9.216 10.0005 8.251C10.0005 7.285 9.21551 6.5 8.25051 6.5Z" fill="#5E81F4"/>
<path fill-rule="evenodd" clip-rule="evenodd" d="M16.4995 8.313C16.4995 3.729 12.7985 0 8.24951 0C3.70051 0 -0.000488281 3.729 -0.000488281 8.313C-0.000488281 13.948 6.45551 19.5 8.24951 19.5C10.0435 19.5 16.4995 13.948 16.4995 8.313ZM1.49951 8.313C1.49951 4.557 4.52751 1.5 8.24951 1.5C11.9715 1.5 14.9995 4.557 14.9995 8.313C14.9995 13.091 9.37551 17.747 8.24951 17.996C7.12351 17.748 1.49951 13.092 1.49951 8.313Z" fill="#5E81F4"/>
</svg>
