<svg width="26" height="26" viewBox="0 0 26 26" fill="none" xmlns="http://www.w3.org/2000/svg">
<path fill-rule="evenodd" clip-rule="evenodd" d="M11.9167 4.33329C7.72859 4.33329 4.33341 7.72847 4.33341 11.9166C4.33341 16.1048 7.72859 19.5 11.9167 19.5C16.1049 19.5 19.5001 16.1048 19.5001 11.9166C19.5001 7.72847 16.1049 4.33329 11.9167 4.33329ZM2.16675 11.9166C2.16675 6.53185 6.53197 2.16663 11.9167 2.16663C17.3015 2.16663 21.6667 6.53185 21.6667 11.9166C21.6667 17.3014 17.3015 21.6666 11.9167 21.6666C6.53197 21.6666 2.16675 17.3014 2.16675 11.9166Z" fill="white"/>
<path fill-rule="evenodd" clip-rule="evenodd" d="M17.2714 17.2715C17.6945 16.8485 18.3804 16.8485 18.8035 17.2715L23.516 21.984C23.939 22.4071 23.939 23.093 23.516 23.5161C23.0929 23.9392 22.407 23.9392 21.9839 23.5161L17.2714 18.8036C16.8483 18.3805 16.8483 17.6946 17.2714 17.2715Z" fill="white"/>
</svg>
