<svg width="17" height="14" viewBox="0 0 17 14" fill="none" xmlns="http://www.w3.org/2000/svg">
<path d="M1.47174 6.05899C5.7667 4.14841 8.63068 2.88884 10.0637 2.28028C14.1552 0.542716 15.0054 0.240883 15.5595 0.23081C15.6814 0.228724 15.9539 0.259563 16.1304 0.405806C16.2794 0.529291 16.3205 0.696102 16.3401 0.81318C16.3597 0.930257 16.3841 1.19696 16.3647 1.40536C16.143 3.78395 15.1836 9.55618 14.6955 12.2202C14.489 13.3475 14.0824 13.7255 13.6887 13.7625C12.8331 13.8429 12.1834 13.1852 11.3548 12.6305C10.0581 11.7627 9.32552 11.2224 8.06685 10.3756C6.61225 9.39685 7.55521 8.85893 8.38418 7.97983C8.60113 7.74976 12.3708 4.24889 12.4438 3.93131C12.4529 3.89159 12.4614 3.74353 12.3752 3.66535C12.2891 3.58718 12.1619 3.61391 12.0702 3.63517C11.9401 3.66531 9.86863 5.06326 5.85572 7.82903C5.26773 8.24127 4.73516 8.44213 4.25798 8.4316C3.73194 8.42 2.72005 8.12792 1.96781 7.87825C1.04515 7.57203 0.311848 7.41013 0.375702 6.89007C0.408962 6.61919 0.774309 6.34216 1.47174 6.05899Z" fill="#6D859E"/>
</svg>
