<svg width="18" height="10" viewBox="0 0 18 10" fill="none" xmlns="http://www.w3.org/2000/svg">
<path fill-rule="evenodd" clip-rule="evenodd" d="M17.1264 0.677106C17.2435 0.286843 17.1264 0 16.5693 0H14.7272C14.2588 0 14.043 0.247763 13.9259 0.521053C13.9259 0.521053 12.989 2.80434 11.6619 4.2875C11.2326 4.71684 11.0375 4.85329 10.8032 4.85329C10.6861 4.85329 10.5167 4.71684 10.5167 4.32658V0.677106C10.5167 0.208685 10.3807 0 9.99035 0H7.09561C6.80298 0 6.62693 0.217369 6.62693 0.423421C6.62693 0.8675 7.29035 0.969868 7.35877 2.21882V4.93158C7.35877 5.52632 7.2514 5.63421 7.01719 5.63421C6.39272 5.63421 4.87377 3.34053 3.97272 0.716184C3.79614 0.206053 3.61903 0 3.14824 0H1.30614C0.779824 0 0.674561 0.247763 0.674561 0.521053C0.674561 1.00895 1.29917 3.42895 3.58246 6.62947C5.10482 8.815 7.2493 10 9.20088 10C10.3719 10 10.5167 9.73684 10.5167 9.28355V7.63158C10.5167 7.10526 10.6276 7.00026 10.9982 7.00026C11.2717 7.00026 11.74 7.13684 12.833 8.19066C14.0819 9.43947 14.2877 10 14.9904 10H16.8325C17.3588 10 17.6219 9.73684 17.4701 9.2175C17.304 8.69987 16.7077 7.94908 15.9164 7.05882C15.4871 6.55132 14.843 6.00487 14.648 5.73171C14.3747 5.38039 14.4527 5.22434 14.648 4.91224C14.648 4.91224 16.8922 1.75066 17.1264 0.677237V0.677106Z" fill="#6D859E"/>
</svg>
